<?xml version="1.0" encoding="UTF-8"?>
<svg version="1.1" xmlns="http://www.w3.org/2000/svg" width="184" height="184">
<path d="M0 0 C3.67485212 1.22495071 3.89787403 2.0795155 5.71484375 5.390625 C6.23062988 6.3182666 6.74641602 7.2459082 7.27783203 8.20166016 C8.09936768 9.71058838 8.09936768 9.71058838 8.9375 11.25 C10.09968299 13.34667434 11.26245731 15.443021 12.42578125 17.5390625 C13.01697754 18.6105957 13.60817383 19.68212891 14.21728516 20.78613281 C16.97517785 25.75804453 19.79810691 30.6920957 22.625 35.625 C23.1212085 36.49415039 23.61741699 37.36330078 24.12866211 38.25878906 C24.59409424 39.0731543 25.05952637 39.88751953 25.5390625 40.7265625 C26.18149902 41.85239746 26.18149902 41.85239746 26.83691406 43.00097656 C27.79959035 44.65555118 28.81160899 46.28130612 29.8359375 47.8984375 C31 50 31 50 31 53 C28.6640625 55.04296875 28.6640625 55.04296875 25.625 57.1875 C24.12839844 58.26064453 24.12839844 58.26064453 22.6015625 59.35546875 C20 61 20 61 18 61 C16.54166682 58.96310519 15.22772949 56.95211133 13.9375 54.8125 C13.57333984 54.23435547 13.20917969 53.65621094 12.83398438 53.06054688 C10.80183943 49.73624323 9.4747908 46.87867557 9 43 C8.34 43 7.68 43 7 43 C6.65066406 42.28972656 6.30132812 41.57945313 5.94140625 40.84765625 C5.48636719 39.92855469 5.03132813 39.00945313 4.5625 38.0625 C4.11003906 37.14597656 3.65757813 36.22945312 3.19140625 35.28515625 C2.19474606 33.09471096 2.19474606 33.09471096 1 32 C0.65743164 32.6297876 0.31486328 33.2595752 -0.03808594 33.90844727 C-1.60796833 36.79354341 -3.17897536 39.6780257 -4.75 42.5625 C-5.28882812 43.55314453 -5.82765625 44.54378906 -6.3828125 45.56445312 C-9.20326357 50.74101271 -12.05056717 55.8957631 -15 61 C-19.02144292 59.62121957 -21.73061335 57.68257366 -25 55 C-26.32112926 54.3094642 -27.65272918 53.638031 -29 53 C-25.31005597 44.00818903 -20.5014219 35.82724526 -15.51220703 27.52001953 C-12.6383849 22.73093461 -9.78793354 17.9280277 -6.9375 13.125 C-6.36515625 12.16746826 -5.7928125 11.20993652 -5.203125 10.22338867 C-4.67074219 9.32724854 -4.13835937 8.4311084 -3.58984375 7.5078125 C-3.11409912 6.71004395 -2.63835449 5.91227539 -2.14819336 5.09033203 C-0.87195547 2.91514348 -0.87195547 2.91514348 0 0 Z " fill="#FDFAF8" transform="translate(92,21)"/>
<path d="M0 0 C3.42843515 0.76944609 5.76286357 1.96034909 8.6875 3.9375 C9.47511719 4.46214844 10.26273438 4.98679687 11.07421875 5.52734375 C13 7 13 7 14 9 C12.86285265 11.26526971 11.67835924 13.3955305 10.375 15.5625 C9.62982409 16.83180575 8.88503242 18.10133715 8.140625 19.37109375 C7.59051758 20.30091064 7.59051758 20.30091064 7.02929688 21.24951172 C5.69290891 23.52225881 4.40309323 25.81904264 3.125 28.125 C2.57199219 29.11886719 2.57199219 29.11886719 2.0078125 30.1328125 C0.96393135 32.06682487 -0.01713768 34.03427536 -1 36 C10.55 36 22.1 36 34 36 C32.57148766 39.57128086 31.10525515 42.89752272 29.375 46.3125 C28.92898437 47.19550781 28.48296875 48.07851562 28.0234375 48.98828125 C27.68570313 49.65214844 27.34796875 50.31601563 27 51 C19.81021608 51.16830406 12.62028027 51.32817993 5.43017578 51.48217773 C2.98384348 51.53557055 0.5375526 51.59089777 -1.90869141 51.64819336 C-5.42341174 51.73017974 -8.93822198 51.80522472 -12.453125 51.87890625 C-13.5480426 51.90594131 -14.64296021 51.93297638 -15.77105713 51.96083069 C-17.30219147 51.99097511 -17.30219147 51.99097511 -18.86425781 52.02172852 C-20.20994843 52.05170677 -20.20994843 52.05170677 -21.58282471 52.08229065 C-23.87954204 52.00410089 -25.8040879 51.65215213 -28 51 C-26.70407932 47.59174746 -25.22456334 44.45471406 -23.41796875 41.2890625 C-22.90387451 40.38422119 -22.38978027 39.47937988 -21.86010742 38.54711914 C-21.30814697 37.58281982 -20.75618652 36.61852051 -20.1875 35.625 C-19.02073832 33.5742728 -17.85407472 31.5234898 -16.6875 29.47265625 C-16.08421875 28.41449707 -15.4809375 27.35633789 -14.859375 26.26611328 C-11.7887865 20.87242461 -8.73904527 15.46697748 -5.6875 10.0625 C-4.58733713 8.11583028 -3.48708582 6.16921054 -2.38671875 4.22265625 C-1.92483154 3.40547119 -1.46294434 2.58828613 -0.98706055 1.74633789 C-0.49846558 0.88190063 -0.49846558 0.88190063 0 0 Z " fill="#FDFAFA" transform="translate(57,83)"/>
<path d="M0 0 C2.35561155 1.5929388 3.1861785 2.9423414 4.49804688 5.45385742 C4.94059814 6.28336914 5.38314941 7.11288086 5.83911133 7.9675293 C6.52880005 9.296875 6.52880005 9.296875 7.23242188 10.65307617 C8.20762493 12.4839234 9.18549571 14.31335214 10.16601562 16.14135742 C10.64409668 17.03419434 11.12217773 17.92703125 11.61474609 18.84692383 C13.39512627 22.09305078 15.31658162 25.21106297 17.29492188 28.34057617 C20.94665428 34.15185464 24.01770852 40.15622187 26.98242188 46.34057617 C27.64745938 47.67472284 28.31384669 49.00819881 28.98242188 50.34057617 C21.384009 50.54343511 13.78629386 50.6835211 6.18579102 50.7800293 C3.60056465 50.82025871 1.01552026 50.87485091 -1.5690918 50.9440918 C-5.28544966 51.04115818 -8.99940275 51.08651024 -12.71679688 51.12182617 C-13.87217453 51.16311646 -15.02755219 51.20440674 -16.21794128 51.24694824 C-24.06760734 51.25133702 -24.06760734 51.25133702 -26.8253479 48.60742188 C-28.11585807 46.56214896 -29.08554844 44.56785212 -30.01757812 42.34057617 C-30.61570312 41.39182617 -31.21382813 40.44307617 -31.83007812 39.46557617 C-33.01757812 37.34057617 -33.01757812 37.34057617 -33.01757812 35.34057617 C-15.69257812 34.84557617 -15.69257812 34.84557617 1.98242188 34.34057617 C-2.57445967 26.61906132 -2.57445967 26.61906132 -7.14233398 18.90405273 C-7.70831299 17.93951172 -8.27429199 16.9749707 -8.85742188 15.98120117 C-9.72935181 14.50441895 -9.72935181 14.50441895 -10.61889648 12.99780273 C-11.82100033 10.71403625 -12.55504982 8.8596569 -13.01757812 6.34057617 C-11.28101718 5.11300723 -9.52777435 3.90900765 -7.76757812 2.71557617 C-6.79304688 2.04268555 -5.81851563 1.36979492 -4.81445312 0.67651367 C-2.01757812 -0.65942383 -2.01757812 -0.65942383 0 0 Z " fill="#FAFBFD" transform="translate(129.017578125,83.659423828125)"/>
<path d="M0 0 C-3.68760318 5.20353947 -5.84109955 6.71730223 -12.3125 7.875 C-25.53405466 10.65235417 -37.03104288 16.88499451 -47 26 C-47.62003906 26.54011719 -48.24007812 27.08023438 -48.87890625 27.63671875 C-61.58658473 39.37781766 -69.56414858 57.85407435 -70.3359375 75.12890625 C-70.36520599 76.93991448 -70.37772391 78.75125733 -70.375 80.5625 C-70.37556396 81.51833984 -70.37612793 82.47417969 -70.37670898 83.45898438 C-70.26252213 90.92168788 -69.08209524 97.55018673 -66.97265625 104.6875 C-64.54907436 112.94130501 -64.54907436 112.94130501 -66.4375 117.375 C-66.953125 118.24125 -67.46875 119.1075 -68 120 C-71.12517464 118.43741268 -71.37725789 115.83046076 -72.5625 112.625 C-72.99691406 111.46226563 -73.43132812 110.29953125 -73.87890625 109.1015625 C-80.8757596 89.7444142 -81.01684908 69.04600326 -72.625 50.0625 C-71.76768542 48.36594674 -70.89288782 46.67810387 -70 45 C-69.37351562 43.68708984 -69.37351562 43.68708984 -68.734375 42.34765625 C-59.14574938 23.14285148 -41.55065357 8.90286002 -21.3125 2.125 C-4.547962 -3.03197467 -4.547962 -3.03197467 0 0 Z " fill="#EFEFEF" transform="translate(88,13)"/>
<path d="M0 0 C15.72947183 2.384521 30.01279787 6.46159965 43 16 C43.90105469 16.64453125 44.80210937 17.2890625 45.73046875 17.953125 C62.98460437 31.09449769 73.77839061 50.69169085 77.03320312 72.04760742 C77.99120165 79.17314017 78.1865322 85.89061284 77 93 C76.81308594 94.17175781 76.62617188 95.34351562 76.43359375 96.55078125 C74.88593791 105.20881023 72.44560858 112.9239293 69 121 C68.34 121 67.68 121 67 121 C64.50777866 116.7133793 63.74600174 114.75701512 65 110 C65.32097656 108.93910156 65.64195312 107.87820312 65.97265625 106.78515625 C72.32812615 85.07632897 69.7321922 64.44212834 59.078125 44.60546875 C56.49531024 40.00676946 53.53245443 35.91677239 50 32 C49.505 31.41347656 49.01 30.82695313 48.5 30.22265625 C37.8705212 18.50365587 22.12975767 11.52162628 6.8125 8.96875 C3.23296219 7.73579809 1.98857934 6.17407857 0 3 C0 2.01 0 1.02 0 0 Z " fill="#EFEFEF" transform="translate(97,11)"/>
<path d="M0 0 C5.16874614 0.04228013 8.0239748 3.87482368 11.54296875 7.24609375 C25.81715119 20.72357763 44.61994207 24.2953194 63.54296875 23.9296875 C76.24406927 23.40508154 91.7896424 18.8978576 101.0625 9.625 C102.2071875 8.9753125 102.2071875 8.9753125 103.375 8.3125 C106.21770986 6.71989213 106.21770986 6.71989213 108.3125 3.9375 C111.81730265 0.99027959 113.84672471 1.19669309 118.26953125 1.44921875 C118.86121094 1.50722656 119.45289063 1.56523437 120.0625 1.625 C110.51397155 17.14135873 92.24830926 25.93937703 75.17578125 30.375 C53.784698 34.67111714 33.61521262 30.7873107 15.0625 19.625 C11.88425534 17.46468265 8.96006854 15.14408528 6.0625 12.625 C5.49144531 12.18414062 4.92039062 11.74328125 4.33203125 11.2890625 C0.66334895 8.44470141 -1.56727542 5.54498681 -3.9375 1.625 C-2.9375 0.625 -2.9375 0.625 0 0 Z " fill="#EFEFEF" transform="translate(33.9375,145.375)"/>
<path d="M0 0 C3.03978021 0.68164768 4.80055419 2.23591662 6.93359375 4.43359375 C8.54798635 7.66237894 8.51542095 10.94263057 7.93359375 14.43359375 C5.37655027 18.07544356 3.71086666 19.21151577 -0.56640625 20.43359375 C-4.5475319 20.43359375 -6.03151061 19.96267345 -9.06640625 17.43359375 C-11.59548595 14.39869811 -12.06640625 12.9147194 -12.06640625 8.93359375 C-10.18985856 2.36567684 -6.70766569 -0.41843661 0 0 Z " fill="#F5F5F5" transform="translate(94.06640625,87.56640625)"/>
<path d="M0 0 C0.66 0.33 1.32 0.66 2 1 C2 1.66 2 2.32 2 3 C1.01 3 0.02 3 -1 3 C-0.67 2.01 -0.34 1.02 0 0 Z " fill="#D6D3D4" transform="translate(73,108)"/>
<path d="M0 0 C0.99 0 1.98 0 3 0 C3 0.66 3 1.32 3 2 C2.01 2 1.02 2 0 2 C0 1.34 0 0.68 0 0 Z " fill="#D3D4D6" transform="translate(110,109)"/>
<path d="" fill="#AAAAAA" transform="translate(0,0)"/>
<path d="" fill="#AAAAAA" transform="translate(0,0)"/>
<path d="" fill="#AAAAAA" transform="translate(0,0)"/>
<path d="" fill="#AAAAAA" transform="translate(0,0)"/>
</svg>
